{
	"asset":{
		"generator":"Khronos glTF Blender I/O v4.0.44",
		"version":"2.0"
	},
	"scene":0,
	"scenes":[
		{
			"name":"Scene",
			"nodes":[
				0,
				1
			]
		}
	],
	"nodes":[
		{
			"mesh":0,
			"name":"Blade"
		},
		{
			"mesh":1,
			"name":"Cylinder",
			"scale":[
				0.2344190776348114,
				1.3498226404190063,
				0.2344190776348114
			],
			"translation":[
				1.2208131551742554,
				0,
				0
			]
		}
	],
	"materials":[
		{
			"doubleSided":true,
			"name":"Metal",
			"pbrMetallicRoughness":{
				"baseColorTexture":{
					"index":0
				},
				"metallicFactor":0,
				"roughnessFactor":0.5
			}
		},
		{
			"doubleSided":true,
			"name":"Material.001",
			"pbrMetallicRoughness":{
				"baseColorTexture":{
					"index":1
				},
				"metallicFactor":0,
				"roughnessFactor":0.5
			}
		}
	],
	"meshes":[
		{
			"name":"Cube.002",
			"primitives":[
				{
					"attributes":{
						"POSITION":0,
						"NORMAL":1,
						"TEXCOORD_0":2
					},
					"indices":3,
					"material":0
				}
			]
		},
		{
			"name":"Cylinder",
			"primitives":[
				{
					"attributes":{
						"POSITION":4,
						"NORMAL":5,
						"TEXCOORD_0":6
					},
					"indices":7,
					"material":1
				}
			]
		}
	],
	"textures":[
		{
			"sampler":0,
			"source":0
		},
		{
			"sampler":0,
			"source":1
		}
	],
	"images":[
		{
			"mimeType":"image/jpeg",
			"name":"METAL",
			"uri":"METAL.jpg"
		},
		{
			"mimeType":"image/jpeg",
			"name":"photos_2023_7_4_fst_wood-cracked-aged-material",
			"uri":"photos_2023_7_4_fst_wood-cracked-aged-material.jpg"
		}
	],
	"accessors":[
		{
			"bufferView":0,
			"componentType":5126,
			"count":510,
			"max":[
				2.2893736362457275,
				1.4398577213287354,
				0.3465043008327484
			],
			"min":[
				-2.416987657546997,
				-3.2060978412628174,
				-0.3465043008327484
			],
			"type":"VEC3"
		},
		{
			"bufferView":1,
			"componentType":5126,
			"count":510,
			"type":"VEC3"
		},
		{
			"bufferView":2,
			"componentType":5126,
			"count":510,
			"type":"VEC2"
		},
		{
			"bufferView":3,
			"componentType":5123,
			"count":795,
			"type":"SCALAR"
		},
		{
			"bufferView":4,
			"componentType":5126,
			"count":494,
			"max":[
				2.173042058944702,
				1.0461773872375488,
				1.2521066665649414
			],
			"min":[
				-3.064063787460327,
				-5.461549282073975,
				-1.1217424869537354
			],
			"type":"VEC3"
		},
		{
			"bufferView":5,
			"componentType":5126,
			"count":494,
			"type":"VEC3"
		},
		{
			"bufferView":6,
			"componentType":5126,
			"count":494,
			"type":"VEC2"
		},
		{
			"bufferView":7,
			"componentType":5123,
			"count":2112,
			"type":"SCALAR"
		}
	],
	"bufferViews":[
		{
			"buffer":0,
			"byteLength":6120,
			"byteOffset":0,
			"target":34962
		},
		{
			"buffer":0,
			"byteLength":6120,
			"byteOffset":6120,
			"target":34962
		},
		{
			"buffer":0,
			"byteLength":4080,
			"byteOffset":12240,
			"target":34962
		},
		{
			"buffer":0,
			"byteLength":1590,
			"byteOffset":16320,
			"target":34963
		},
		{
			"buffer":0,
			"byteLength":5928,
			"byteOffset":17912,
			"target":34962
		},
		{
			"buffer":0,
			"byteLength":5928,
			"byteOffset":23840,
			"target":34962
		},
		{
			"buffer":0,
			"byteLength":3952,
			"byteOffset":29768,
			"target":34962
		},
		{
			"buffer":0,
			"byteLength":4224,
			"byteOffset":33720,
			"target":34963
		}
	],
	"samplers":[
		{
			"magFilter":9729,
			"minFilter":9987
		}
	],
	"buffers":[
		{
			"byteLength":37944,
			"uri":"Axe.bin"
		}
	]
}
